<svg width="40" height="40" viewBox="0 0 40 40" fill="none" xmlns="http://www.w3.org/2000/svg">
<path fill-rule="evenodd" clip-rule="evenodd" d="M19.9544 33.2396H38.6955C39.4159 33.2396 40 33.8227 40 34.5419C40 35.2612 39.4159 35.8442 38.6956 35.8442H18.6957H1.30437C0.776796 35.8442 0.301172 35.5269 0.0992972 35.0403C0.0614847 34.949 0.0346879 34.8552 0.0185161 34.7605C0.00773484 34.6974 0.00171922 34.634 0.000312977 34.5705C-0.00734326 34.2219 0.125625 33.8771 0.382031 33.6211L29.5124 4.5373C30.0218 4.02874 30.8478 4.02874 31.357 4.5373C31.8664 5.04586 31.8664 5.8704 31.357 6.37896L15.4087 22.3017C18.0929 25.374 19.675 29.1812 19.9544 33.2396ZM13.5597 24.1479L4.45328 33.2396H17.3393C17.0696 29.8766 15.7578 26.7209 13.5597 24.1479Z" fill="black"/>
</svg>
