<svg width="38" height="40" viewBox="0 0 38 40" fill="none" xmlns="http://www.w3.org/2000/svg">
<path fill-rule="evenodd" clip-rule="evenodd" d="M35.1499 28.8749C35.1499 29.1617 34.9895 29.4239 34.7298 29.556L20.1457 37.0091V19.2557L35.1499 11.5895V28.8749ZM18.9999 17.2934L4.19816 9.73095L18.6428 2.3496C18.8662 2.23451 19.1336 2.23639 19.357 2.34772L33.8017 9.73095L18.9999 17.2934ZM37.4166 9.49509C37.3899 9.39509 37.3861 9.38377 37.3823 9.37056C37.3364 9.25358 37.3231 9.22716 37.3097 9.20452C37.2524 9.10829 37.2448 9.09697 37.2371 9.08376C37.1779 9.00829 37.1684 8.99696 37.1569 8.98564C37.0786 8.90451 37.0653 8.89319 37.0538 8.88187C36.9698 8.81583 36.9621 8.81017 36.9545 8.80451C36.8609 8.74601 36.838 8.73281 36.8151 8.72148L20.4092 0.338218C19.527 -0.112739 18.4728 -0.112739 17.5906 0.338218L1.18472 8.72148C1.07969 8.78186 1.0625 8.7913 1.04531 8.80451C0.995661 8.84036 0.970836 8.86111 0.94601 8.88187C0.863895 8.95923 0.854346 8.97244 0.842889 8.98564C0.795147 9.04036 0.77796 9.063 0.762683 9.08376C0.703484 9.1781 0.695845 9.18942 0.690116 9.20452C0.648103 9.29131 0.642375 9.30452 0.636646 9.31962C0.596543 9.4366 0.588904 9.4649 0.583175 9.49509C0.565988 9.61019 0.564079 9.61774 0.564079 9.62717C0.560259 9.66114 0.55835 28.8749 0.55835 28.8749C0.55835 30.0127 1.19427 31.0429 2.21784 31.5656L18.448 39.8601C18.553 39.9111 18.5664 39.9167 18.5836 39.9224C18.7039 39.962 18.7268 39.9677 18.7517 39.9734C18.8128 39.9866 18.8433 39.9903 18.8758 39.9941C18.9293 39.9998 18.9636 39.9998 18.9999 39.9998C19.1126 39.996 19.1183 39.9941 19.124 39.9941C19.2272 39.9771 19.2386 39.9752 19.2482 39.9734C19.3379 39.9507 19.3551 39.9451 19.3704 39.9394C19.485 39.8941 19.506 39.8847 19.527 39.8734C19.5384 39.8677 35.782 31.5674 35.782 31.5674C36.8056 31.0429 37.4415 30.0127 37.4415 28.8749V9.73095C37.4186 9.51019 37.4186 9.50264 37.4166 9.49509Z" fill="black"/>
</svg>
