<svg width="38" height="40" viewBox="0 0 38 40" fill="none" xmlns="http://www.w3.org/2000/svg">
<path fill-rule="evenodd" clip-rule="evenodd" d="M35.1499 28.8751C35.1499 29.1619 34.9895 29.4242 34.7298 29.5563L20.1457 37.0093V19.256L35.1499 11.5897V28.8751ZM18.9999 17.2937L4.19816 9.73119L18.6428 2.34984C18.8662 2.23474 19.1336 2.23663 19.357 2.34795L33.8017 9.73119L18.9999 17.2937ZM17.8541 37.0093L3.27006 29.5544C3.01035 29.4242 2.84993 29.1619 2.84993 28.8751V11.5897L17.8541 19.256V37.0093ZM37.4357 9.62741C37.4357 9.61797 37.4338 9.61043 37.4338 9.5991C37.43 9.57269 37.4262 9.54627 37.4205 9.51986C37.4186 9.51042 37.4186 9.50287 37.4166 9.49533C37.4109 9.46514 37.4033 9.43684 37.3937 9.40853C37.3899 9.39532 37.3861 9.384 37.3823 9.3708C37.3765 9.35381 37.3689 9.33683 37.3632 9.31985C37.3574 9.30476 37.3517 9.29155 37.346 9.27834C37.3364 9.25381 37.3231 9.22739 37.3097 9.20475C37.3021 9.18966 37.2963 9.17834 37.2887 9.16513C37.2791 9.15003 37.2696 9.13494 37.26 9.11984C37.2524 9.10852 37.2448 9.0972 37.2371 9.08399C37.2219 9.06324 37.2047 9.0406 37.1875 9.02173C37.1779 9.00852 37.1684 8.9972 37.1569 8.98588C37.1455 8.97267 37.1359 8.95946 37.1226 8.94814C37.1111 8.93682 37.0996 8.9255 37.0901 8.91418C37.0786 8.90474 37.0653 8.89342 37.0538 8.8821C37.029 8.86135 37.0042 8.84059 36.9774 8.82172C36.9698 8.81606 36.9621 8.8104 36.9545 8.80474C36.9373 8.79153 36.9201 8.7821 36.901 8.77078C36.8953 8.76512 36.8877 8.76134 36.8819 8.75757C36.8609 8.74625 36.838 8.73304 36.8151 8.72172L20.4092 0.338454V0.336567C19.527 -0.112503 18.4728 -0.112503 17.5906 0.338454L1.18472 8.72172C1.1618 8.73304 1.13889 8.74625 1.11788 8.75757C1.11215 8.76134 1.10451 8.76512 1.09878 8.77078C1.07969 8.7821 1.0625 8.79153 1.04531 8.80474C1.03767 8.8104 1.03003 8.81606 1.0224 8.82172C0.995661 8.84059 0.970836 8.86135 0.94601 8.8821C0.934552 8.89342 0.921184 8.90474 0.909727 8.91418C0.898269 8.9255 0.88872 8.93682 0.877262 8.94814C0.863895 8.95946 0.854346 8.97267 0.842889 8.98588C0.831431 8.9972 0.819973 9.00852 0.812334 9.02173C0.795147 9.0406 0.77796 9.06324 0.762683 9.08399C0.755044 9.0972 0.747406 9.10852 0.737857 9.11984C0.730219 9.13494 0.72067 9.15003 0.711122 9.16513C0.703484 9.17834 0.695845 9.18966 0.690116 9.20475C0.676748 9.22739 0.663381 9.25381 0.653832 9.27834C0.648103 9.29155 0.642375 9.30476 0.636646 9.31985C0.630917 9.33683 0.623278 9.35381 0.617549 9.3708C0.61373 9.384 0.60991 9.39532 0.606091 9.40853C0.596543 9.43684 0.588904 9.46514 0.583175 9.49533C0.581265 9.50287 0.579356 9.51042 0.577446 9.51986C0.573627 9.54627 0.569808 9.57269 0.565988 9.5991C0.565988 9.61043 0.564079 9.61797 0.564079 9.62741C0.560259 9.66137 0.55835 9.69533 0.55835 9.73118V28.8751C0.55835 30.0129 1.19427 31.0431 2.21784 31.5658L18.448 39.8604C18.4537 39.8641 18.4614 39.8679 18.469 39.8717L18.4728 39.8736C18.4938 39.8849 18.5149 39.8943 18.5378 39.9038C18.553 39.9113 18.5664 39.917 18.5836 39.9226C18.5989 39.9283 18.6142 39.934 18.6294 39.9396C18.6447 39.9453 18.6619 39.9509 18.6791 39.9547C18.7039 39.9623 18.7268 39.9679 18.7517 39.9736C18.7612 39.9755 18.7727 39.9774 18.7822 39.9792C18.8128 39.9868 18.8433 39.9906 18.8758 39.9943C18.8815 39.9943 18.8872 39.9962 18.8949 39.9962C18.9293 40 18.9636 40 18.9999 40C19.0362 40 19.0706 40 19.1049 39.9962C19.1126 39.9962 19.1183 39.9943 19.124 39.9943C19.1565 39.9906 19.1871 39.9868 19.2176 39.9792C19.2272 39.9774 19.2386 39.9755 19.2482 39.9736C19.273 39.9679 19.2959 39.9623 19.3207 39.9547C19.3379 39.9509 19.3551 39.9453 19.3704 39.9396C19.3857 39.934 19.4009 39.9283 19.4162 39.9226C19.4334 39.917 19.4468 39.9113 19.462 39.9038C19.485 39.8943 19.506 39.8849 19.527 39.8736L19.5308 39.8717C19.5384 39.8679 19.5461 39.8641 19.5518 39.8604L35.782 31.5677C36.8056 31.0431 37.4415 30.0129 37.4415 28.8751V9.73118C37.4415 9.69533 37.4396 9.66137 37.4357 9.62741V9.62741Z" fill="white"/>
</svg>
