<svg width="40" height="40" viewBox="0 0 40 40" fill="none" xmlns="http://www.w3.org/2000/svg">
<path fill-rule="evenodd" clip-rule="evenodd" d="M39.9137 20.433C39.8571 20.5708 39.7721 20.6972 39.6684 20.801L34.2338 26.2352C34.013 26.456 33.7224 26.5673 33.4337 26.5673C33.145 26.5673 32.8544 26.456 32.6337 26.2352C32.1921 25.7956 32.1921 25.0767 32.6337 24.637L36.1378 21.1312H21.1324V36.1357L24.6366 32.6336C25.0781 32.1902 25.7933 32.1902 26.2349 32.6336C26.6783 33.0733 26.6783 33.7922 26.2349 34.2318L20.8022 39.6679C20.6965 39.7717 20.5739 39.8547 20.4361 39.9113C20.2984 39.9698 20.1512 40 20.0002 40C19.8474 40 19.7002 39.9698 19.5625 39.9113C19.4247 39.8547 19.302 39.7717 19.1983 39.6679L13.7637 34.2318C13.3222 33.7903 13.3222 33.0733 13.7637 32.6336C14.2072 32.1902 14.9242 32.1921 15.3658 32.6336L18.868 36.1338V21.1312H3.86267L7.36493 24.637C7.80838 25.0785 7.80838 25.7956 7.36493 26.2352C7.14415 26.456 6.85356 26.5673 6.56485 26.5673C6.27425 26.5673 5.98554 26.456 5.76476 26.2352L0.330224 20.7991C0.224552 20.6972 0.141524 20.5708 0.0849147 20.4312C-0.0283049 20.1557 -0.0283049 19.8443 0.0849147 19.5688C0.141524 19.4292 0.224552 19.3028 0.330224 19.2009L5.76476 13.7648C6.20632 13.3214 6.92338 13.3214 7.36493 13.7648C7.80838 14.2044 7.80838 14.9215 7.36493 15.363L3.86267 18.8688H18.868V3.86622L15.3658 7.36639C14.9223 7.8098 14.2053 7.8098 13.7637 7.36639C13.3222 6.92674 13.3222 6.20973 13.7637 5.7682L19.1983 0.332091C19.4039 0.126421 19.687 0 20.0002 0C20.3135 0 20.5965 0.126421 20.8022 0.332091L26.2349 5.7682C26.6783 6.20784 26.6783 6.92674 26.2349 7.36639C26.0141 7.58715 25.7254 7.69848 25.4367 7.69848C25.1461 7.69848 24.8574 7.58715 24.6366 7.36639L21.1324 3.86433V18.8688H36.1378L32.6337 15.363C32.1921 14.9233 32.1921 14.2044 32.6337 13.7648C33.0752 13.3214 33.7904 13.3214 34.2338 13.7648L39.6684 19.199C39.7721 19.3028 39.8571 19.4292 39.9137 19.567C40.0288 19.8443 40.0288 20.1576 39.9137 20.433" fill="black"/>
</svg>
