<svg width="32" height="40" viewBox="0 0 32 40" fill="none" xmlns="http://www.w3.org/2000/svg">
<path fill-rule="evenodd" clip-rule="evenodd" d="M29.2886 12.4104C29.2886 11.7077 29.0213 11.0463 28.5381 10.5502L21.0376 2.85018C20.5526 2.35225 19.9083 2.07792 19.2238 2.07792H6.59288C4.1714 2.07792 2.20017 4.10157 2.20017 6.58745V32.8931C2.20017 35.3808 4.1714 37.4026 6.59288 37.4026H24.8958C27.3173 37.4026 29.2886 35.3808 29.2886 32.8931V12.4104ZM31.8441 12.6396V33.2075C31.8441 36.9528 28.8687 40 25.2116 40H6.7882C3.13115 40 0.155762 36.9528 0.155762 33.2075V6.79245C0.155762 3.04906 3.13115 0 6.7882 0H19.5022C20.7826 0 21.9857 0.511321 22.8903 1.43774L30.4402 9.16981C31.3466 10.0962 31.8441 11.3283 31.8441 12.6396V12.6396ZM16.4345 13.8146L14.7862 15.4908C14.3601 15.9242 14.3601 16.6249 14.7862 17.0564C15.2105 17.4879 15.8996 17.4879 16.3239 17.0564L17.9741 15.3802C18.8916 14.4452 20.3876 14.4434 21.3088 15.3802C21.7549 15.832 21.9997 16.4349 21.9997 17.0767C21.9997 17.7165 21.7549 18.3195 21.3088 18.7713L19.6605 20.4475C19.2344 20.8809 19.2344 21.5816 19.6605 22.0131C19.8727 22.2289 20.1519 22.3377 20.4293 22.3377C20.7068 22.3377 20.986 22.2289 21.1982 22.0131L22.8484 20.3369C23.7043 19.4665 24.1775 18.3085 24.1775 17.0767C24.1775 15.843 23.7043 14.685 22.8484 13.8146C21.0822 12.0185 18.2044 12.0185 16.4345 13.8146V13.8146ZM15.6756 24.5008L14.0269 26.1765C13.1346 27.0834 11.5803 27.0834 10.6897 26.1765C10.2436 25.723 9.99872 25.1202 9.99872 24.4805C9.99872 23.8409 10.2436 23.2381 10.6897 22.7846L12.3384 21.1089C12.7646 20.6775 12.7646 19.977 12.3384 19.5457C11.914 19.1125 11.2248 19.1125 10.8004 19.5457L9.15172 21.2214C8.29385 22.0914 7.82229 23.2491 7.82229 24.4805C7.82229 25.7119 8.29385 26.8696 9.15172 27.7397C10.0078 28.6116 11.1468 29.0909 12.3583 29.0909C13.5699 29.0909 14.7089 28.6116 15.5649 27.7397L17.2136 26.064C17.6398 25.6327 17.6398 24.9322 17.2136 24.5008C16.7892 24.0676 16.1 24.0676 15.6756 24.5008V24.5008ZM12.2375 22.998L18.1833 16.9564C18.6204 16.5124 19.3271 16.5124 19.7623 16.9564C20.1975 17.3987 20.1975 18.1168 19.7623 18.559L13.8165 24.6025C13.5989 24.8236 13.3125 24.9351 13.0261 24.9351C12.7415 24.9351 12.4551 24.8236 12.2375 24.6025C11.8023 24.1584 11.8023 23.4403 12.2375 22.998V22.998Z" fill="black"/>
</svg>
