<svg width="40" height="40" viewBox="0 0 40 40" fill="none" xmlns="http://www.w3.org/2000/svg">
<path fill-rule="evenodd" clip-rule="evenodd" d="M25.0263 38.1805C24.8936 37.5473 24.2724 37.142 23.639 37.2741C22.8297 37.4436 22.0036 37.5546 21.1719 37.6093V2.39133C22.0037 2.44593 22.8297 2.55703 23.639 2.72648C24.2733 2.85898 24.8937 2.45273 25.0263 1.82008C25.1589 1.18687 24.753 0.566015 24.1195 0.433437C11.6669 -2.17375 0 7.31179 0 20.0003C0 32.716 11.6935 42.1687 24.1195 39.5671C24.753 39.4345 25.159 38.8137 25.0263 38.1805ZM31.2531 3.47109C33.4153 4.9446 35.244 6.79741 36.6881 8.97811C37.0453 9.51756 36.8974 10.2444 36.3578 10.6015C35.8173 10.9589 35.0906 10.8102 34.7337 10.2713C33.4581 8.34506 31.8428 6.70843 29.9328 5.40679C29.3981 5.04233 29.2601 4.31366 29.6247 3.77905C29.9892 3.24452 30.7181 3.10663 31.2531 3.47109ZM39.627 16.1382C39.5026 15.5033 38.8867 15.0895 38.2517 15.2137C37.6166 15.338 37.2024 15.9534 37.3268 16.5883C37.7527 18.7624 37.7799 21.1066 37.3249 23.422C37.2002 24.0568 37.6139 24.6724 38.249 24.7971C38.8862 24.922 39.5004 24.5064 39.6247 23.8734C40.1096 21.4063 40.1396 18.7555 39.627 16.1382ZM36.3531 29.4073C35.8137 29.0498 35.0864 29.1974 34.7289 29.7366C33.452 31.6623 31.8359 33.2981 29.9253 34.5987C29.3904 34.9629 29.252 35.6915 29.6163 36.2263C29.9807 36.7612 30.7099 36.8991 31.2446 36.5351C33.4076 35.0627 35.2372 33.2108 36.6826 31.0307C37.0401 30.4915 36.8926 29.7646 36.3531 29.4073ZM2.34375 20.0003C2.34375 29.4793 9.74524 37.0203 18.8281 37.6113V2.38949C9.74094 2.98066 2.34375 10.5239 2.34375 20.0003Z" fill="black"/>
</svg>
