<svg width="40" height="40" viewBox="0 0 40 40" fill="none" xmlns="http://www.w3.org/2000/svg">
<path fill-rule="evenodd" clip-rule="evenodd" d="M2.78853 35.2375V29.0519C2.78853 28.2821 2.16524 27.6566 1.39543 27.6566C0.625618 27.6566 0 28.2821 0 29.0519V38.6025C0 38.7862 0.0372115 38.9652 0.106983 39.135C0.251177 39.4768 0.520961 39.7512 0.862841 39.8908C1.03262 39.9605 1.21402 40 1.39543 40H10.9471C11.717 40 12.3426 39.3745 12.3426 38.6025C12.3426 37.8327 11.717 37.2072 10.9471 37.2072H4.76307L17.4894 24.4847C18.0336 23.9382 18.0336 23.0545 17.4894 22.5104C16.9428 21.9662 16.0614 21.9662 15.5172 22.5104L2.78853 35.2375ZM40 10.9459C40 11.7179 39.3767 12.3411 38.6069 12.3411C37.8371 12.3411 37.2115 11.7179 37.2115 10.9459V4.76251L24.4828 17.4897C24.2107 17.7618 23.8549 17.899 23.499 17.899C23.1409 17.899 22.785 17.7618 22.5129 17.4897C21.9664 16.9432 21.9664 16.0619 22.5129 15.5154L35.2369 2.79286H29.0528C28.283 2.79286 27.6597 2.16732 27.6597 1.39527C27.6597 0.625545 28.283 0 29.0528 0H38.6069C38.7883 0 38.9674 0.0372071 39.1372 0.109296C39.4814 0.248823 39.7511 0.5209 39.893 0.862741C39.9651 1.03482 40 1.21388 40 1.39527V10.9459Z" fill="black"/>
</svg>
