<svg width="28" height="28" viewBox="0 0 28 28" fill="none" xmlns="http://www.w3.org/2000/svg">
<path fill-rule="evenodd" clip-rule="evenodd" d="M16.5091 22.172V10.1358C16.5091 9.69175 16.8305 9.33334 17.226 9.33334C17.6226 9.33334 17.9428 9.69175 17.9428 10.1358V22.172C17.9428 22.616 17.6226 22.9744 17.226 22.9744C16.8305 22.9744 16.5091 22.616 16.5091 22.172V22.172ZM10.0571 22.172V10.1358C10.0571 9.69175 10.3785 9.33334 10.774 9.33334C11.1707 9.33334 11.4909 9.69175 11.4909 10.1358V22.172C11.4909 22.616 11.1707 22.9744 10.774 22.9744C10.3785 22.9744 10.0571 22.616 10.0571 22.172ZM22.6026 23.0425C22.6026 24.7859 21.1851 26.2051 19.4438 26.2051H8.91459C7.17332 26.2051 5.75582 24.7859 5.75582 23.0425V5.38463H22.6026V23.0425ZM11.4909 1.99429C11.4909 1.68578 11.7273 1.43589 12.0191 1.43589H15.9808C16.2727 1.43589 16.5091 1.68578 16.5091 1.99429V3.94871H11.4909V1.99429ZM25.7613 3.96226H18.0511V2.11321C18.0511 0.948302 17.1128 0 15.9602 0H12.0398C10.8871 0 9.94885 0.948302 9.94885 2.11321V3.96226H2.23862C1.80606 3.96226 1.45453 4.31623 1.45453 4.75472C1.45453 5.19321 1.80606 5.54717 2.23862 5.54717H4.06817V23.2453C4.06817 25.867 6.17868 28 8.77271 28H19.2273C21.8213 28 23.9318 25.867 23.9318 23.2453V5.54717H25.7613C26.1952 5.54717 26.5454 5.19321 26.5454 4.75472C26.5454 4.31623 26.1952 3.96226 25.7613 3.96226V3.96226Z" fill="black"/>
</svg>
