<svg width="48" height="34" viewBox="0 0 48 34" fill="none" xmlns="http://www.w3.org/2000/svg">
<path fill-rule="evenodd" clip-rule="evenodd" d="M0.435592 15.9375L15.2816 0.919338C15.86 0.334245 16.8008 0.334245 17.3816 0.919338C17.96 1.50686 17.96 2.45855 17.3816 3.04364L5.05548 15.5103H46.5144C47.3352 15.5103 48 16.1828 48 17.013C48 17.8433 47.3352 18.5158 46.5144 18.5158H5.08427L17.3816 30.9558C17.96 31.5408 17.96 32.4925 17.3816 33.0801C17.0888 33.3714 16.7096 33.5195 16.3304 33.5195C15.9512 33.5195 15.5696 33.3714 15.2816 33.0801L0.435592 18.0618C-0.145193 17.4743 -0.145193 16.5251 0.435592 15.9375" fill="black"/>
</svg>
