<svg width="40" height="40" viewBox="0 0 40 40" fill="none" xmlns="http://www.w3.org/2000/svg">
<path fill-rule="evenodd" clip-rule="evenodd" d="M20 20.6497C20.6917 20.6497 21.25 20.1036 21.25 19.4315V1.21827C21.25 0.544162 20.6917 0 20 0C19.3083 0 18.75 0.544162 18.75 1.21827V19.4315C18.75 20.1036 19.3083 20.6497 20 20.6497ZM40 20.5076C40 31.2548 31.0271 40 20 40C8.97292 40 0 31.2548 0 20.5076C0 13.0579 4.25625 6.36751 11.1083 3.04975C11.7312 2.7533 12.4792 2.99695 12.7854 3.6C13.0938 4.20102 12.8396 4.93401 12.225 5.23249C6.22708 8.13604 2.5 13.9878 2.5 20.5076C2.5 29.9127 10.35 37.5634 20 37.5634C29.65 37.5634 37.5 29.9127 37.5 20.5076C37.5 13.9878 33.7729 8.13604 27.775 5.23249C27.1604 4.93401 26.9063 4.20102 27.2146 3.6C27.5188 2.99695 28.2729 2.75127 28.8917 3.04975C35.7438 6.36751 40 13.0579 40 20.5076" fill="#D0021B"/>
</svg>
