<svg width="40" height="40" viewBox="0 0 40 40" fill="none" xmlns="http://www.w3.org/2000/svg">
<path fill-rule="evenodd" clip-rule="evenodd" d="M20 26.0609C16.5263 26.0609 13.7039 23.3423 13.7039 19.9989C13.7039 16.6577 16.5263 13.9391 20 13.9391C23.4737 13.9391 26.2961 16.6577 26.2961 19.9989C26.2961 23.3423 23.4737 26.0609 20 26.0609M20 11.4063C15.0767 11.4063 11.0701 15.2604 11.0701 19.9989C11.0701 24.7396 15.0767 28.5937 20 28.5937C24.9233 28.5937 28.9299 24.7396 28.9299 19.9989C28.9299 15.2604 24.9233 11.4063 20 11.4063M37.2742 26.1221L34.1536 31.3334C33.9541 31.6669 33.5133 31.7851 33.1668 31.5909L31.011 30.3963C29.9124 29.7863 28.5483 29.8158 27.5351 30.4744C26.9694 30.8416 26.3641 31.1688 25.7435 31.4432C24.6009 31.9498 23.8597 33.0874 23.8597 34.3433V36.7685C23.8597 37.1527 23.5329 37.465 23.136 37.465H16.8859C16.4868 37.465 16.1623 37.1527 16.1623 36.7685V34.3454C16.1623 33.0874 15.421 31.9477 14.2719 31.4411C13.6403 31.1646 13.0307 30.8374 12.4605 30.4681C11.9342 30.1282 11.3135 29.9594 10.6841 29.9594C10.103 29.9594 9.51528 30.105 8.98896 30.3963L6.83543 31.5909C6.49113 31.7809 6.04595 31.6648 5.84639 31.3356L2.72575 26.1221C2.52838 25.7907 2.64681 25.3623 2.9933 25.1723L4.85077 24.1402C5.99551 23.5027 6.64464 22.2764 6.5021 21.0142C6.44727 20.5541 6.42754 20.0876 6.42754 19.6085C6.42754 18.9014 6.47578 18.3019 6.57885 17.7743C6.68192 17.2466 6.42754 16.7126 5.94288 16.4424L2.9933 14.8066C2.649 14.6145 2.52838 14.1882 2.72795 13.8547L5.8442 8.64968C5.9385 8.48926 6.09639 8.37317 6.2806 8.32674C6.4714 8.27397 6.66657 8.30141 6.83324 8.39639L8.39685 9.26811C9.51747 9.89922 10.9495 9.80423 12.0416 9.03805C12.7017 8.57158 13.4122 8.16633 14.1513 7.83072C15.3903 7.26928 16.1623 6.13583 16.1623 4.87573V3.23149C16.1623 2.84523 16.4868 2.53496 16.8859 2.53496H23.136C23.5329 2.53496 23.8597 2.84523 23.8597 3.23149V4.87996C23.8597 6.13583 24.6272 7.26716 25.8641 7.83072C26.5965 8.16421 27.2983 8.56947 27.9584 9.03594C29.0527 9.80423 30.4803 9.89922 31.601 9.27022L33.1668 8.39639C33.3334 8.30141 33.5264 8.27397 33.7194 8.32674C33.9036 8.37317 34.0615 8.48926 34.1558 8.64968L37.2721 13.8568C37.4716 14.1882 37.351 14.6145 37.0067 14.8066L34.0571 16.4424C33.5725 16.7126 33.3181 17.2466 33.4212 17.7743C33.5242 18.3019 33.5725 18.9014 33.5725 19.6085C33.5725 20.0876 33.5527 20.5541 33.4957 21.0163C33.3554 22.2764 34.0045 23.5027 35.1492 24.1402L37.0089 25.1723C37.3532 25.3623 37.4716 25.7907 37.2742 26.1221M38.3225 22.9793L36.4694 21.9471C36.2216 21.8099 36.0835 21.5524 36.1142 21.2907C36.1778 20.7398 36.2085 20.1826 36.2085 19.6085C36.2085 19.1082 36.1865 18.646 36.1383 18.2112L38.3203 17.0017C39.9234 16.111 40.476 14.1333 39.5528 12.5925L36.4387 7.38747C35.9892 6.63817 35.2655 6.10205 34.397 5.87832C33.5264 5.65458 32.6229 5.77067 31.8466 6.20548L30.2786 7.08142C30.0176 7.22917 29.715 7.13208 29.5154 6.99277C28.7216 6.43343 27.8729 5.94375 26.9913 5.54272C26.7501 5.43085 26.4913 5.19867 26.4913 4.87995V3.23149C26.4913 1.45006 24.9847 0 23.136 0H16.8859C15.0351 0 13.5307 1.45006 13.5307 3.23149V4.87573C13.5307 5.19867 13.2719 5.43085 13.0285 5.5406C12.1403 5.94586 11.285 6.43343 10.4912 6.99066C10.2894 7.12997 9.98019 7.22495 9.71922 7.07931L8.15342 6.20548C7.3771 5.77067 6.4692 5.65669 5.60296 5.87832C4.73454 6.10205 4.01085 6.63817 3.56128 7.38747L0.447225 12.5904C-0.476027 14.1333 0.0766085 16.111 1.67969 17.0017L3.86172 18.2112C3.81348 18.646 3.79155 19.1082 3.79155 19.6085C3.79155 20.1826 3.82225 20.7398 3.88585 21.2907C3.91655 21.5524 3.77839 21.8099 3.53058 21.9471L1.6775 22.9772C0.0766086 23.8658 -0.476027 25.8435 0.447225 27.3864L3.56567 32.5999C4.49111 34.1407 6.54157 34.6726 8.14904 33.7861L10.2982 32.5914C10.535 32.4627 10.8135 32.4563 10.9934 32.5703C11.682 33.0157 12.4166 33.4104 13.1776 33.746C13.3881 33.8388 13.5307 34.0795 13.5307 34.3454V36.7685C13.5307 38.5499 15.0351 40 16.8859 40H23.136C24.9847 40 26.4913 38.5499 26.4913 36.7685V34.3433C26.4913 34.0795 26.6294 33.8388 26.8443 33.746C27.5944 33.4125 28.3224 33.0178 29.0045 32.5745C29.1887 32.4563 29.4672 32.4627 29.7018 32.5914L31.8532 33.7861C33.4584 34.6747 35.5089 34.1386 36.4343 32.5978L39.5528 27.3864C40.476 25.8435 39.9234 23.8658 38.3225 22.9793" fill="black"/>
</svg>
